<?xml version="1.0" standalone="no"?>
<!DOCTYPE svg PUBLIC "-//W3C//DTD SVG 20010904//EN"
 "http://www.w3.org/TR/2001/REC-SVG-20010904/DTD/svg10.dtd">
<svg version="1.0" xmlns="http://www.w3.org/2000/svg"
 width="1024.000000pt" height="1024.000000pt" viewBox="0 0 1024.000000 1024.000000"
 preserveAspectRatio="xMidYMid meet">

<g transform="translate(0.000000,1024.000000) scale(0.100000,-0.100000)"
fill="#000000" stroke="none">
<path d="M5595 7222 c-3 -4 -22 -7 -43 -8 -65 -3 -125 -14 -139 -25 -18 -16
-16 -38 5 -46 9 -4 35 -23 56 -42 128 -117 192 -243 203 -396 11 -161 -40
-298 -156 -414 -97 -98 -191 -141 -581 -265 -47 -15 -119 -41 -160 -58 -84
-34 -365 -135 -422 -151 -44 -13 -50 -9 -129 90 -31 39 -60 69 -65 65 -4 -4
-4 1 -1 11 4 10 3 16 -2 12 -5 -3 -12 1 -14 7 -3 7 -6 2 -7 -12 l-2 -25 -7 25
c-6 22 -8 19 -15 -22 -5 -32 -12 -48 -22 -48 -16 0 -18 -16 -15 -121 3 -73 2
-77 -20 -84 -13 -4 -37 -12 -54 -19 -16 -7 -68 -28 -115 -46 -171 -68 -249
-119 -376 -247 l-93 -93 -33 19 c-138 79 -183 106 -186 113 -2 4 -8 8 -14 8
-11 0 -78 49 -95 70 -6 8 -8 16 -2 18 5 2 7 7 5 11 -3 4 0 13 5 21 8 13 10 13
18 0 6 -8 13 -11 17 -7 4 4 2 13 -4 19 -15 15 -16 98 -2 98 6 0 10 9 10 20 0
13 -7 20 -20 20 -13 0 -20 7 -20 20 0 11 5 20 10 20 6 0 10 9 10 20 0 13 -7
20 -20 20 -17 0 -20 7 -20 40 0 33 -3 40 -20 40 -13 0 -20 7 -20 20 0 28 -20
25 -21 -2 -1 -22 -1 -22 -8 2 -8 26 -21 -96 -21 -191 0 -107 -73 -242 -170
-313 -152 -112 -372 -94 -439 37 -22 43 -23 51 -12 89 7 23 26 54 42 70 26 26
27 31 14 45 -8 8 -12 19 -9 25 4 6 2 8 -3 5 -6 -4 -17 1 -24 10 -10 12 -10 14
-1 9 7 -4 12 -2 12 4 0 7 -7 9 -16 6 -46 -18 -245 286 -275 420 -12 55 -8 77
12 57 8 -8 19 -4 41 15 16 15 34 27 39 26 5 -1 16 -2 24 -2 11 -2 15 -14 15
-47 0 -38 3 -45 20 -45 13 0 20 -7 20 -20 0 -17 7 -20 40 -20 33 0 40 3 40 20
0 13 7 20 20 20 13 0 20 7 20 20 0 17 7 20 40 20 l40 0 0 -40 0 -40 40 0 40 0
0 -80 c0 -73 -2 -80 -20 -80 -17 0 -20 -7 -20 -40 0 -33 -3 -40 -20 -40 -13 0
-20 7 -20 20 0 13 -7 20 -20 20 -13 0 -20 -7 -20 -20 0 -13 7 -20 20 -20 13 0
20 -7 20 -20 0 -13 -7 -20 -20 -20 -18 0 -20 -7 -20 -55 0 -40 4 -56 17 -63
14 -9 14 -10 -5 -16 -46 -15 -24 -29 58 -39 19 -3 49 -10 66 -17 45 -19 80 -6
111 42 28 41 28 43 29 217 1 106 -1 158 -6 131 -6 -36 -7 -25 -8 57 -2 87 -4
101 -17 97 -8 -4 -15 -12 -15 -20 0 -8 -7 -14 -15 -14 -16 0 -18 -10 -15 -77
1 -25 -3 -43 -9 -43 -6 0 -11 18 -11 40 0 38 -2 40 -30 40 l-30 0 0 60 c0 53
-2 60 -20 60 -13 0 -20 7 -20 20 0 13 -7 20 -20 20 -17 0 -20 7 -20 40 0 33 3
40 20 40 13 0 20 7 20 20 0 13 -7 20 -20 20 -13 0 -20 7 -20 20 0 17 -7 20
-40 20 l-40 0 0 60 c0 53 -2 60 -20 60 -18 0 -20 7 -20 75 0 60 -3 75 -15 75
-8 0 -15 -6 -15 -13 0 -21 -87 -101 -95 -87 -4 6 -2 17 4 23 6 6 11 16 11 21
0 6 -7 0 -16 -12 -8 -12 -13 -26 -10 -31 8 -13 -4 -42 -15 -36 -13 9 -28 -29
-18 -47 6 -11 4 -20 -6 -28 -12 -10 -15 -10 -15 1 -1 8 -7 3 -15 -11 -16 -27
-20 -54 -5 -30 7 12 9 10 7 -7 0 -12 -5 -19 -11 -16 -5 4 -7 -1 -3 -10 3 -9 2
-19 -3 -22 -6 -4 -10 0 -10 7 0 8 -5 6 -11 -5 -5 -9 -7 -22 -3 -29 4 -6 3 -8
-3 -5 -23 14 -147 -329 -188 -516 -167 -776 -94 -1436 233 -2117 142 -295 343
-587 585 -850 345 -376 791 -668 1294 -848 606 -217 1299 -241 1918 -67 372
105 650 234 990 460 172 114 292 214 457 381 152 154 229 246 353 419 391 548
596 1137 622 1785 14 373 -75 890 -212 1233 -20 50 -30 65 -37 55 -6 -9 -7 -7
-3 8 6 25 -66 189 -79 177 -4 -4 -4 0 -1 9 4 11 -2 25 -19 39 -15 13 -26 33
-26 48 0 21 -2 23 -11 11 -8 -12 -10 -12 -8 5 3 37 -1 43 -21 38 -11 -3 -20 0
-20 6 0 6 7 11 15 11 9 0 12 6 9 15 -5 11 -10 13 -19 5 -6 -5 -15 -7 -18 -3
-4 3 -7 -1 -7 -9 0 -9 -11 -19 -25 -22 -16 -4 -25 -13 -25 -26 0 -18 -7 -20
-55 -20 -48 0 -55 -2 -55 -20 0 -13 -7 -20 -20 -20 -13 0 -20 -7 -20 -20 0
-17 -7 -20 -40 -20 -37 0 -40 -2 -40 -29 0 -59 12 -91 34 -92 17 -1 18 -2 3
-6 -13 -3 -4 -12 33 -30 28 -14 49 -28 46 -30 -3 -3 1 -15 9 -27 8 -11 15 -42
15 -69 0 -59 -33 -227 -62 -311 -81 -240 -297 -558 -397 -586 -88 -24 -166 40
-165 135 0 43 6 60 33 96 18 24 22 33 10 19 -14 -14 -32 -24 -43 -22 -11 3
-16 0 -12 -7 4 -6 1 -11 -6 -11 -15 0 -48 -35 -48 -50 0 -6 -14 -13 -30 -17
-28 -5 -29 -7 -13 -19 16 -13 15 -14 -12 -8 -20 4 -26 3 -17 -4 10 -7 5 -14
-23 -31 -21 -12 -39 -20 -41 -18 -2 2 -5 47 -7 99 -1 54 -6 94 -11 90 -5 -3
-7 5 -4 16 4 12 2 20 -3 16 -5 -3 -9 3 -9 13 -1 25 -48 166 -59 172 -4 3 -20
29 -34 56 -60 119 -192 269 -304 347 -62 42 -211 114 -297 143 l-71 24 5 58
c14 166 1 341 -35 448 -50 150 -138 308 -178 319 -10 2 -17 9 -14 13 3 5 -5 9
-19 9 -13 0 -24 -4 -24 -8 0 -4 -7 -8 -15 -8 -8 0 -15 7 -15 15 0 12 -14 15
-65 16 -75 2 -76 2 -92 12 -8 5 -13 4 -13 -2 0 -6 -5 -11 -11 -11 -5 0 -7 6
-3 13 5 8 2 8 -9 -2 -9 -7 -17 -9 -17 -3 0 11 -46 22 -55 14z m2465 -803 c0
-6 -4 -7 -10 -4 -5 3 -10 11 -10 16 0 6 5 7 10 4 6 -3 10 -11 10 -16z m-376
-25 c4 -10 1 -14 -6 -12 -15 5 -23 28 -10 28 5 0 13 -7 16 -16z m-5573 -113
c7 11 9 11 9 -2 0 -9 -8 -23 -17 -30 -9 -8 -14 -9 -10 -2 4 6 2 13 -5 15 -7 3
-8 9 -3 18 7 11 10 11 13 1 4 -11 6 -11 13 0z m49 -55 c0 -8 -7 -17 -16 -20
-23 -9 -24 -8 -24 14 0 13 7 20 20 20 11 0 20 -6 20 -14z m120 -6 c0 -13 7
-20 20 -20 13 0 20 -7 20 -20 0 -13 7 -20 20 -20 13 0 20 -7 20 -20 0 -17 -7
-20 -40 -20 -40 0 -40 0 -40 39 0 30 -4 40 -20 44 -11 3 -20 12 -20 21 0 9 8
16 20 16 13 0 20 -7 20 -20z m3858 -312 c121 -38 251 -150 305 -259 37 -79 50
-134 49 -224 -1 -201 -115 -372 -314 -469 -40 -20 -134 -58 -208 -85 -74 -26
-283 -101 -465 -166 -784 -280 -905 -323 -927 -335 -11 -6 -19 -6 -23 0 -4 6
8 15 25 21 20 7 29 16 26 25 -3 7 -1 16 4 19 6 4 10 15 10 25 0 10 6 23 13 27
27 17 85 96 80 109 -5 15 54 74 74 74 7 0 13 7 13 15 0 8 5 15 11 15 5 0 7 5
4 10 -3 6 -1 10 4 10 6 0 11 5 11 11 0 15 42 48 61 49 9 0 35 18 59 40 24 22
45 40 48 40 2 0 12 10 23 23 16 19 20 20 29 7 8 -13 10 -13 10 2 0 11 5 15 15
12 10 -4 15 0 15 11 0 9 5 13 10 10 6 -4 26 7 46 24 19 17 41 31 49 31 8 0 15
8 15 18 0 9 5 24 11 32 8 11 9 8 4 -14 -5 -24 -4 -27 7 -18 8 6 25 8 38 5 16
-4 21 -3 16 5 -4 7 -1 12 8 12 9 0 16 5 16 10 0 6 13 10 29 10 21 0 32 6 36
20 3 11 15 25 25 30 16 9 19 8 13 -7 -5 -17 -5 -17 8 -2 8 10 25 20 39 24 19
5 21 4 10 -4 -9 -7 -10 -11 -3 -11 6 0 21 14 33 30 12 17 26 30 31 30 15 0 10
-23 -11 -50 -11 -14 -20 -29 -20 -34 0 -6 23 22 50 61 28 39 50 76 50 81 0 5
6 12 13 15 22 8 266 372 302 451 32 70 47 116 75 223 10 41 11 42 48 36 20 -2
65 -14 100 -25z m1835 -43 c-3 -9 -8 -14 -10 -11 -3 3 -2 9 2 15 9 16 15 13 8
-4z m-823 -389 c0 -3 -4 -8 -10 -11 -5 -3 -10 -1 -10 4 0 6 5 11 10 11 6 0 10
-2 10 -4z m-2202 -196 c-121 -174 -525 -763 -625 -913 -39 -59 -73 -113 -76
-120 -6 -20 -137 -10 -221 17 -134 42 -227 119 -283 235 -25 49 -28 67 -28
151 0 85 3 101 28 149 43 80 111 143 208 189 46 22 271 106 499 187 228 80
442 157 475 170 33 13 66 24 73 25 7 0 -15 -41 -50 -90z m-2914 -96 c10 -25
-1 -29 -14 -5 -6 12 -7 21 -1 21 5 0 12 -7 15 -16z m40 -72 c6 -7 18 -21 27
-30 9 -9 22 -32 30 -49 8 -18 17 -33 20 -33 4 0 10 -8 13 -17 5 -13 0 -11 -18
6 -15 14 -26 30 -26 38 0 7 -4 13 -10 13 -5 0 -6 7 -3 17 4 10 2 14 -4 10 -12
-8 -53 52 -52 74 0 11 2 11 6 -1 3 -8 11 -20 17 -28z m6080 -7 c-17 -26 -34
-33 -34 -13 0 6 3 8 7 5 3 -4 12 2 20 13 20 29 26 25 7 -5z m-48 -60 c-3 -22
-86 -116 -97 -109 -5 3 -8 0 -7 -8 2 -7 -3 -12 -10 -10 -8 1 -11 -2 -7 -8 6
-10 -9 -19 -39 -24 -21 -3 -33 -16 -15 -17 8 -1 4 -4 -9 -7 -13 -4 -23 -11
-23 -17 -1 -5 -6 -16 -12 -23 -8 -11 -12 -10 -20 3 -5 9 -18 20 -30 25 -18 7
-14 9 21 9 35 1 42 4 42 21 0 11 6 20 14 20 8 0 17 8 21 18 5 19 52 48 68 43
5 -1 11 8 14 19 4 15 9 18 18 10 10 -8 15 -8 20 1 4 6 1 15 -6 20 -9 6 -10 9
-2 9 6 0 15 9 18 20 7 23 44 28 41 5z m-106 -55 c0 -5 -4 -10 -10 -10 -5 0
-10 5 -10 10 0 6 5 10 10 10 6 0 10 -4 10 -10z m-5068 -127 c72 -42 73 -181 1
-229 -54 -36 -287 -42 -354 -8 -15 7 -37 33 -48 58 -42 86 1 181 90 197 24 4
96 6 161 5 93 -2 123 -7 150 -23z m4658 -51 c23 -11 42 -32 56 -60 19 -40 40
-50 27 -14 -4 10 2 7 13 -7 18 -21 21 -22 33 -7 7 9 21 16 29 16 9 0 -5 -15
-31 -32 -26 -18 -54 -47 -62 -65 -8 -17 -28 -43 -45 -56 -26 -23 -41 -26 -154
-32 -186 -11 -221 0 -251 80 -29 75 0 151 69 181 49 21 271 19 316 -4z m266 6
c10 -16 -44 -57 -67 -51 -10 3 -16 10 -13 15 4 5 14 8 23 5 20 -5 39 13 33 31
-5 15 14 16 24 0z m-4916 -435 c50 -45 60 -133 22 -191 -28 -44 -61 -52 -207
-52 -148 0 -176 7 -214 56 -43 55 -18 173 44 203 11 5 89 10 172 10 l153 1 30
-27z m4668 -53 c41 -25 55 -61 49 -124 -4 -41 -11 -55 -41 -83 l-36 -33 -145
0 c-108 0 -153 4 -174 14 -79 41 -90 162 -20 220 30 25 34 26 182 26 134 0
156 -2 185 -20z m-1500 -348 c74 -192 86 -429 32 -637 -26 -98 -80 -226 -134
-320 -48 -81 -223 -263 -306 -317 -235 -152 -472 -209 -715 -173 -215 32 -435
131 -371 167 8 5 22 15 31 24 13 13 15 13 15 1 0 -16 16 -17 37 -4 13 8 43 -1
43 -14 0 -15 22 -10 36 9 8 10 13 12 14 5 0 -21 20 -15 20 6 0 27 15 34 30 16
16 -19 30 -19 30 0 0 8 5 15 10 15 6 0 10 -4 10 -8 0 -4 17 -8 38 -8 20 -1 30
1 20 3 -9 2 -19 11 -22 19 -5 12 -2 12 15 3 12 -6 19 -7 16 -2 -3 5 -2 15 4
23 6 10 9 11 9 3 0 -21 31 -15 51 11 14 18 31 24 74 28 32 3 62 12 74 22 10
10 25 16 33 15 26 -5 78 13 78 27 0 8 2 14 4 14 2 0 13 3 23 6 15 5 15 4 3 -5
-25 -17 -3 -23 28 -7 16 8 33 26 36 38 5 14 9 18 13 11 7 -19 21 -16 28 7 3
11 17 23 30 26 16 4 31 20 42 45 9 21 21 39 27 39 5 0 6 3 3 7 -4 3 -20 -5
-35 -20 -44 -42 -173 -104 -257 -122 -243 -54 -526 75 -624 285 -23 48 -26 68
-26 160 0 98 2 110 32 173 47 98 134 183 243 234 128 61 577 215 602 207 36
-11 142 -129 177 -197 l34 -66 31 13 c19 7 32 21 34 34 2 12 8 22 13 22 6 0 7
5 4 10 -3 6 4 10 18 10 14 0 30 7 37 15 7 8 9 15 5 15 -4 0 -2 7 5 15 7 9 20
13 28 10 8 -3 16 3 19 15 3 11 10 20 15 20 6 0 23 11 40 25 16 14 35 25 42 25
6 0 29 17 49 38 20 21 47 38 60 40 19 1 26 -8 45 -56z m-2601 -362 c88 -54
174 -114 192 -132 64 -66 66 -154 3 -218 -36 -36 -273 -192 -345 -226 -68 -33
-155 10 -178 86 -22 74 11 117 150 189 44 23 81 48 81 55 0 6 -36 31 -80 55
-104 55 -137 84 -151 131 -10 32 -9 44 7 76 24 49 76 84 124 84 29 0 69 -20
197 -100z m3448 84 c45 -21 65 -45 75 -90 17 -74 -21 -119 -163 -194 -37 -19
-65 -39 -64 -45 2 -5 39 -29 82 -53 96 -51 132 -84 147 -133 22 -76 -56 -165
-137 -156 -39 4 -60 16 -318 184 -97 63 -132 131 -107 207 14 45 52 76 235
197 161 106 185 114 250 83z m-2455 -954 c0 -5 -5 -10 -11 -10 -5 0 -7 5 -4
10 3 6 8 10 11 10 2 0 4 -4 4 -10z m40 -15 c7 -8 8 -15 2 -15 -5 0 -15 7 -22
15 -7 8 -8 15 -2 15 5 0 15 -7 22 -15z m46 -52 c-7 -7 -26 7 -26 19 0 6 6 6
15 -2 9 -7 13 -15 11 -17z"/>
<path d="M5815 3861 c-3 -5 -2 -12 3 -15 5 -3 9 1 9 9 0 17 -3 19 -12 6z"/>
<path d="M5048 2813 c7 -3 16 -2 19 1 4 3 -2 6 -13 5 -11 0 -14 -3 -6 -6z"/>
<path d="M2499 7003 c-13 -16 -12 -17 4 -4 16 13 21 21 13 21 -2 0 -10 -8 -17
-17z"/>
<path d="M2460 6949 c0 -5 5 -7 10 -4 6 3 10 8 10 11 0 2 -4 4 -10 4 -5 0 -10
-5 -10 -11z"/>
<path d="M2405 6880 c-3 -6 1 -7 9 -4 18 7 21 14 7 14 -6 0 -13 -4 -16 -10z"/>
<path d="M2385 6850 c-3 -5 -3 -10 2 -10 4 0 2 -4 -5 -9 -10 -6 -10 -10 1 -20
12 -10 14 -6 13 19 -1 33 -2 35 -11 20z"/>
<path d="M2355 6800 c-3 -5 -3 -16 1 -22 4 -7 3 -10 -1 -5 -5 4 -24 -14 -42
-40 -40 -56 -64 -101 -32 -59 21 26 23 27 30 10 7 -17 8 -17 8 3 1 33 12 53
27 53 8 0 14 -9 14 -20 0 -11 5 -20 10 -20 6 0 10 11 10 25 0 14 5 25 10 25 6
0 10 7 10 15 0 8 -4 15 -10 15 -5 0 -10 7 -10 15 0 17 -16 20 -25 5z"/>
<path d="M7870 6780 c-11 -31 -6 -59 11 -63 23 -6 35 9 15 20 -7 4 -16 17 -19
28 -2 11 -6 18 -7 15z"/>
<path d="M7011 6752 c-1 -7 6 -24 15 -37 15 -23 17 -90 3 -135 -8 -27 -71 -59
-118 -60 -42 0 -127 34 -162 66 -8 8 -19 14 -24 14 -4 0 -24 12 -43 26 -30 24
-34 25 -28 7 4 -12 1 -25 -9 -33 -31 -25 -7 -131 35 -152 37 -19 60 -41 60
-56 0 -10 7 -12 21 -9 11 3 36 -1 54 -9 19 -8 59 -14 89 -14 31 0 56 -5 58
-11 2 -6 13 -9 23 -6 19 5 19 5 -2 12 -13 4 -23 11 -23 16 0 5 10 9 23 9 12 0
36 9 52 20 17 11 36 20 42 20 40 0 83 70 83 135 0 38 -3 45 -20 45 -13 0 -20
7 -20 18 0 10 9 24 20 32 11 8 20 18 20 22 0 4 -9 8 -20 8 -11 0 -20 5 -20 10
0 6 -9 10 -20 10 -11 0 -20 -4 -20 -10 0 -25 -28 -6 -47 33 -12 23 -22 36 -22
29z"/>
<path d="M7851 6680 c-12 -7 -11 -11 3 -26 11 -10 20 -13 24 -7 4 5 16 13 26
16 22 9 20 12 -14 20 -14 3 -31 2 -39 -3z"/>
<path d="M2271 6624 c0 -11 3 -14 6 -6 3 7 2 16 -1 19 -3 4 -6 -2 -5 -13z"/>
<path d="M3520 6625 c-1 -5 -2 -14 -1 -18 1 -4 -4 -7 -11 -5 -15 2 -128 -60
-128 -71 0 -16 -125 -17 -145 -1 -13 10 -15 9 -15 -6 0 -33 44 -99 68 -102 12
-2 22 -8 22 -13 0 -12 47 -12 52 1 2 6 24 11 51 12 26 1 47 5 47 8 0 4 11 13
25 20 43 23 101 172 61 157 -9 -4 -17 1 -19 11 -3 9 -6 13 -7 7z"/>
<path d="M7570 6329 c0 -5 5 -7 10 -4 6 3 10 8 10 11 0 2 -4 4 -10 4 -5 0 -10
-5 -10 -11z"/>
<path d="M2755 6312 c2 -2 -1 -10 -8 -18 -7 -7 -18 -20 -24 -28 -8 -9 -12 -39
-11 -73 1 -44 2 -48 5 -18 5 64 11 82 37 113 18 20 21 29 10 29 -7 0 -12 -2
-9 -5z"/>
<path d="M2640 6251 c0 -6 5 -13 10 -16 6 -3 10 1 10 9 0 9 -4 16 -10 16 -5 0
-10 -4 -10 -9z"/>
<path d="M7491 6241 c0 -3 4 -15 8 -26 7 -18 8 -17 13 6 3 17 0 26 -9 26 -7 0
-13 -3 -12 -6z"/>
<path d="M2666 6217 c-5 -15 -6 -31 -2 -34 11 -11 18 5 14 34 l-4 28 -8 -28z"/>
<path d="M2620 6190 c0 -5 5 -10 10 -10 6 0 10 5 10 10 0 6 -4 10 -10 10 -5 0
-10 -4 -10 -10z"/>
<path d="M7470 6115 c-9 -18 -10 -29 -3 -36 7 -7 12 0 17 22 8 41 3 46 -14 14z"/>
<path d="M7402 6121 c-17 -10 -6 -81 13 -81 6 0 19 18 27 39 14 35 14 40 1 45
-19 8 -25 7 -41 -3z"/>
<path d="M7320 6040 c0 -33 -3 -40 -20 -40 -17 0 -20 -7 -20 -40 l0 -40 -40 0
c-33 0 -40 -3 -40 -20 0 -13 7 -20 20 -20 17 0 20 -7 20 -40 0 -33 -3 -40 -20
-40 -17 0 -20 -7 -20 -48 0 -43 3 -50 25 -60 14 -7 35 -12 46 -12 11 0 17 -4
14 -10 -3 -5 -4 -10 -1 -10 9 0 56 79 55 92 0 7 -4 4 -9 -7 -7 -17 -9 -17 -9
-3 -1 23 39 69 53 61 7 -4 7 -2 0 6 -16 17 -6 48 17 54 13 3 17 11 13 21 -3 9
-2 16 4 16 5 0 12 8 15 18 3 9 10 32 16 50 5 18 6 30 2 27 -5 -2 -11 -18 -14
-35 -7 -31 -30 -43 -25 -13 2 10 -5 19 -16 21 -22 5 -53 32 -37 32 6 0 11 18
11 40 0 33 -3 40 -20 40 -17 0 -20 -7 -20 -40z m-18 -342 c-7 -7 -12 -8 -12
-2 0 14 12 26 19 19 2 -3 -1 -11 -7 -17z"/>
<path d="M3003 5995 c0 -22 2 -30 4 -17 2 12 2 30 0 40 -3 9 -5 -1 -4 -23z"/>
<path d="M7240 5640 c0 -6 7 -10 15 -10 8 0 15 2 15 4 0 2 -7 6 -15 10 -8 3
-15 1 -15 -4z"/>
<path d="M7120 5610 c0 -5 9 -10 20 -10 11 0 20 5 20 10 0 6 -9 10 -20 10 -11
0 -20 -4 -20 -10z"/>
<path d="M7240 5609 c0 -5 5 -7 10 -4 6 3 10 8 10 11 0 2 -4 4 -10 4 -5 0 -10
-5 -10 -11z"/>
<path d="M7150 5561 c0 -6 5 -13 10 -16 6 -3 10 1 10 9 0 9 -4 16 -10 16 -5 0
-10 -4 -10 -9z"/>
</g>
</svg>
